<?xml version="1.0" standalone="no"?>
<!DOCTYPE svg PUBLIC "-//W3C//DTD SVG 20010904//EN"
 "http://www.w3.org/TR/2001/REC-SVG-20010904/DTD/svg10.dtd">
<svg version="1.0" xmlns="http://www.w3.org/2000/svg"
 width="345.000000pt" height="310.000000pt" viewBox="0 0 345.000000 310.000000"
 preserveAspectRatio="xMidYMid meet">

<g transform="translate(0.000000,310.000000) scale(0.100000,-0.100000)"
fill="#e4bc04" stroke="none">
<path d="M240 2800 l0 -140 1420 0 1420 0 0 140 0 140 -1420 0 -1420 0 0 -140z"/>
<path d="M240 2234 l0 -144 1420 0 1420 0 0 145 0 145 -1420 -1 -1420 -2 0
-143z"/>
<path d="M240 1665 l0 -145 570 0 570 0 0 143 0 143 -570 2 -570 1 0 -144z"/>
<path d="M2275 1801 c-216 -35 -386 -144 -505 -326 -126 -194 -145 -460 -49
-673 83 -184 235 -320 434 -388 71 -25 95 -28 210 -29 144 0 228 19 334 76 30
16 59 29 65 29 6 0 96 -86 201 -190 l190 -190 100 100 100 100 -194 194 -193
193 37 73 c52 103 75 203 75 324 0 124 -19 206 -70 311 -91 186 -264 328 -463
379 -73 19 -207 27 -272 17z m177 -292 c132 -28 236 -107 293 -223 86 -172 54
-368 -80 -495 -215 -204 -551 -141 -678 127 -30 63 -32 74 -32 177 0 105 2
114 34 180 59 119 164 203 291 231 71 16 107 17 172 3z"/>
<path d="M240 1095 l0 -145 570 0 570 0 0 143 0 143 -570 2 -570 1 0 -144z"/>
<path d="M240 525 l0 -145 570 0 570 0 0 143 0 143 -570 2 -570 1 0 -144z"/>
</g>
</svg>
